<svg width="36" height="21" viewBox="0 0 36 21" fill="none" xmlns="http://www.w3.org/2000/svg">
<path fill-rule="evenodd" clip-rule="evenodd" d="M10.8846 0.0623033C12.0787 -0.0054383 13.2714 -1.89678e-05 14.4656 -1.89678e-05C14.4738 -1.89678e-05 20.5164 -1.89678e-05 20.5164 -1.89678e-05C21.7339 -1.89678e-05 22.9266 -0.0054383 24.1201 0.0623033C25.2051 0.123271 26.2619 0.253335 27.314 0.543946C29.5286 1.15498 31.4625 2.43123 32.8605 4.24061C34.2502 6.03847 35.0023 8.23939 35.0023 10.4993C35.0023 12.7618 34.2502 14.9614 32.8605 16.7593C31.4625 18.568 29.5286 19.8449 27.314 20.4559C26.2619 20.7465 25.2051 20.8759 24.1201 20.9376C22.9266 21.0053 21.7339 20.9992 20.5398 20.9992C20.5315 20.9992 14.4875 20.9999 14.4875 20.9999C13.2714 20.9992 12.0787 21.0053 10.8846 20.9376C9.80026 20.8759 8.7434 20.7465 7.69134 20.4559C5.47673 19.8449 3.54281 18.568 2.14487 16.7593C0.755162 14.9614 0.00231934 12.7618 0.00231934 10.4999C0.00231934 8.23939 0.755162 6.03847 2.14487 4.24061C3.54281 2.43123 5.47673 1.15498 7.69134 0.543946C8.7434 0.253335 9.80026 0.123271 10.8846 0.0623033Z" fill="#6D010C"/>
</svg>
