<svg width="16" height="14" viewBox="0 0 16 14" fill="none" xmlns="http://www.w3.org/2000/svg">
<g opacity="0.5">
<path d="M14.5937 0.90625H1.40618C1.18971 0.90625 0.987055 0.959469 0.803711 1.04719L7.96868 8.21216L9.57459 6.66881C9.57459 6.66881 9.57471 6.66866 9.57474 6.66859C9.57477 6.66853 9.5749 6.66847 9.5749 6.66847L15.1964 1.04731C15.013 0.959531 14.8102 0.90625 14.5937 0.90625Z" fill="#737373"/>
<path d="M15.8593 1.71027L10.5692 7.00008L15.8591 12.29C15.9468 12.1066 16.0001 11.904 16.0001 11.6875V2.31252C16.0001 2.09617 15.947 1.89355 15.8593 1.71027Z" fill="#737373"/>
<path d="M0.140937 1.71002C0.0532188 1.89337 0 2.09602 0 2.31249V11.6875C0 11.9038 0.0531562 12.1065 0.140812 12.2898L5.43091 6.99998L0.140937 1.71002Z" fill="#737373"/>
<path d="M9.90634 7.6629L8.30021 9.20644C8.20865 9.298 8.08871 9.34378 7.96881 9.34378C7.8489 9.34378 7.72893 9.298 7.6374 9.20644L6.09378 7.66284L0.803589 12.9527C0.986964 13.0405 1.18975 13.0937 1.40628 13.0937H14.5938C14.8102 13.0937 15.0129 13.0405 15.1962 12.9528L9.90634 7.6629Z" fill="#737373"/>
</g>
</svg>
