<svg width="14" height="16" viewBox="0 0 14 16" fill="none" xmlns="http://www.w3.org/2000/svg">
<g opacity="0.5">
<path d="M6.57349 7.70724C7.63232 7.70724 8.54919 7.32749 9.29834 6.57822C10.0475 5.82908 10.4272 4.91246 10.4272 3.8535C10.4272 2.79491 10.0475 1.87817 9.29822 1.12878C8.54895 0.379759 7.6322 0 6.57349 0C5.51453 0 4.5979 0.379759 3.84875 1.1289C3.09961 1.87804 2.71973 2.79479 2.71973 3.8535C2.71973 4.91246 3.09961 5.8292 3.84888 6.57834C4.59814 7.32736 5.51489 7.70724 6.57349 7.70724Z" fill="#737373"/>
<path d="M13.3165 12.3032C13.2949 11.9914 13.2512 11.6513 13.1869 11.2922C13.1219 10.9304 13.0383 10.5883 12.9382 10.2757C12.8348 9.9526 12.6942 9.63351 12.5204 9.32772C12.34 9.01034 12.1281 8.73397 11.8903 8.50656C11.6416 8.26864 11.3372 8.07736 10.9851 7.93783C10.6343 7.79904 10.2455 7.72873 9.82959 7.72873C9.66626 7.72873 9.5083 7.79575 9.20325 7.99435C9.0155 8.11679 8.7959 8.25839 8.55078 8.41501C8.34119 8.54855 8.05725 8.67367 7.70654 8.78695C7.36438 8.89767 7.01697 8.95382 6.67407 8.95382C6.33118 8.95382 5.98389 8.89767 5.64136 8.78695C5.29102 8.67379 5.00708 8.54867 4.79773 8.41513C4.55493 8.25998 4.33521 8.11838 4.14465 7.99423C3.83997 7.79562 3.68188 7.72861 3.51855 7.72861C3.10254 7.72861 2.71387 7.79904 2.36316 7.93796C2.01135 8.07724 1.70679 8.26852 1.45789 8.50668C1.22021 8.73422 1.00818 9.01046 0.828003 9.32772C0.654297 9.63351 0.513672 9.95248 0.410156 10.2758C0.310181 10.5885 0.226562 10.9304 0.161621 11.2922C0.09729 11.6508 0.0535889 11.991 0.0319824 12.3035C0.0107422 12.6097 0 12.9274 0 13.2484C0 14.0836 0.265503 14.7597 0.789062 15.2584C1.30615 15.7504 1.99036 16.0001 2.82239 16.0001H10.5265C11.3585 16.0001 12.0425 15.7505 12.5597 15.2584C13.0834 14.7601 13.3489 14.0838 13.3489 13.2482C13.3488 12.9259 13.3379 12.6079 13.3165 12.3032Z" fill="#737373"/>
</g>
</svg>
