<svg width="12" height="18" viewBox="0 0 12 18" fill="none" xmlns="http://www.w3.org/2000/svg">
<path d="M6.00009 0.716454C2.69169 0.716454 0.00012207 3.40802 0.00012207 6.71639C0.00012207 10.8222 5.3695 16.8497 5.59811 17.1043C5.81283 17.3435 6.18773 17.343 6.40207 17.1043C6.63067 16.8497 12.0001 10.8222 12.0001 6.71639C12 3.40802 9.30845 0.716454 6.00009 0.716454ZM6.00009 9.73512C4.33555 9.73512 2.98139 8.38092 2.98139 6.71639C2.98139 5.05185 4.33558 3.69769 6.00009 3.69769C7.66459 3.69769 9.01876 5.05188 9.01876 6.71642C9.01876 8.38096 7.66459 9.73512 6.00009 9.73512Z" fill="#737373"/>
</svg>
