<?xml version="1.0" encoding="utf-8"?>
<!-- Generator: Adobe Illustrator 23.0.0, SVG Export Plug-In . SVG Version: 6.00 Build 0)  -->
<svg version="1.1" id="Слой_1" xmlns="http://www.w3.org/2000/svg" xmlns:xlink="http://www.w3.org/1999/xlink" x="0px" y="0px"
	 viewBox="0 0 400 504" style="enable-background:new 0 0 400 504;" xml:space="preserve">
<style type="text/css">
	.st0{fill:#6D010C;}
	.st1{fill:#FFFFFF;}
</style>
<g>
	<path class="st0" d="M0,21C0,9.4,9.4,0,21,0h358c11.6,0,21,9.4,21,21v349.54c0,17.3-19.74,27.18-33.59,16.81L8.42,119.3
		C3.12,115.33,0,109.1,0,102.49V84.57c0-5.13,1.87-10.08,5.29-13.9c5.59-6.24,13.68-15.17,14.2-15.17c0.52,0-7.63-8.55-13.56-14.69
		C2.14,36.86,0,31.61,0,26.13V21z"/>
</g>
<g>
	<path class="st1" d="M4,23C4,11.95,12.96,3,24,3h353c11.05,0,20,8.95,20,20v461c0,11.05-8.95,20-20,20H24c-11.05,0-20-8.95-20-20
		V84.8c0-5.25,2.06-10.28,5.76-14c6.17-6.21,15.15-15.15,15.67-15.15c0.52,0-8.66-8.83-15.17-15.03C6.27,36.81,4,31.55,4,26.04V23z"
		/>
</g>
</svg>
