<svg width="14" height="14" viewBox="0 0 14 14" fill="none" xmlns="http://www.w3.org/2000/svg">
<path d="M7 0C3.14568 0 0 3.14587 0 7C0 10.8544 3.14587 14 7 14C10.8544 14 14 10.8541 14 7C14 3.14568 10.8541 0 7 0ZM7 1.66797C9.66118 1.66797 11.8732 3.62764 12.2689 6.17969H10.8465C9.94468 6.17969 9.08783 5.81779 8.4957 5.18681C7.68633 4.32422 6.31375 4.32395 5.5043 5.18678C4.91217 5.81779 4.05532 6.17969 3.15345 6.17969H1.73108C2.12682 3.62764 4.33882 1.66797 7 1.66797ZM7 8.64062C6.32155 8.64062 5.76953 8.08866 5.76953 7.41016C5.76953 6.73165 6.32155 6.17969 7 6.17969C7.67851 6.17969 8.23047 6.73165 8.23047 7.41016C8.23047 8.08866 7.67851 8.64062 7 8.64062ZM2.03492 8.94406C2.50441 8.75987 2.84342 8.64062 3.30859 8.64062C4.80397 8.64062 5.96693 9.9732 5.74167 11.4704H5.74071C5.70724 11.6996 5.6414 11.9217 5.54643 12.1306C3.93974 11.6748 2.63952 10.4829 2.03492 8.94406ZM8.45389 12.1305C8.35633 11.916 8.29191 11.694 8.25929 11.4704H8.25833C7.99586 9.72576 9.60641 8.28619 11.2758 8.71046C11.4518 8.75519 11.672 8.82913 11.9651 8.94409C11.3605 10.4827 10.0604 11.6747 8.45389 12.1305Z" fill="#737373"/>
</svg>
