<svg width="23" height="29" viewBox="0 0 23 29" fill="none" xmlns="http://www.w3.org/2000/svg">
<path d="M22.0515 12.6809C21.8747 11.1259 20.4222 10.0238 18.8572 10.0238H11.0424C11.7065 8.83459 12.063 5.47102 12.0472 4.097C12.0209 1.82261 10.1375 0 7.86299 0H7.03586C6.48183 0 6.03345 0.448316 6.03345 1.00241C6.03345 3.32035 5.13088 7.50418 3.42866 9.20647C2.28293 10.3522 1.30346 10.7674 0.0191422 11.4092V26.4499C1.98547 27.1053 4.48209 28.0667 8.28743 28.0667H14.8445C17.005 28.0667 18.6877 26.0657 17.8505 23.9515C19.126 23.604 20.0667 22.4342 20.0667 21.05C20.0667 20.6594 19.9913 20.2855 19.8553 19.9419C22.0047 19.3563 22.7959 16.7022 21.3041 15.0357C21.8521 14.4234 22.1544 13.5859 22.0515 12.6809Z" fill="#6D010C"/>
</svg>
