<svg width="42" height="46" viewBox="0 0 42 46" fill="none" xmlns="http://www.w3.org/2000/svg">
<path d="M40.5126 6.4379C40.43 5.84481 40.0033 5.35695 39.4264 5.1966L20.9382 0.0550196C20.6747 -0.0183399 20.3963 -0.0183399 20.1325 0.0550196L1.64429 5.1966C1.06743 5.35695 0.640705 5.84461 0.558125 6.4379C0.450892 7.20897 -1.99543 25.4278 4.27921 34.4911C10.5464 43.5436 19.7919 45.8634 20.1824 45.9578C20.2984 45.9859 20.4167 45.9997 20.5354 45.9997C20.654 45.9997 20.7723 45.9857 20.8883 45.9578C21.279 45.8634 30.5245 43.5436 36.7915 34.4911C43.0661 25.428 40.6198 7.20917 40.5126 6.4379ZM32.4579 17.0742L19.8471 29.685C19.5536 29.9785 19.1688 30.1254 18.7841 30.1254C18.3995 30.1254 18.0147 29.9787 17.7212 29.685L9.92409 21.8879C9.64207 21.6061 9.48373 21.2236 9.48373 20.825C9.48373 20.4263 9.64227 20.0439 9.92409 19.7621L11.4723 18.2139C12.0593 17.627 13.0112 17.6268 13.5981 18.2139L18.7841 23.4L28.7839 13.4C29.0657 13.118 29.4481 12.9597 29.8468 12.9597C30.2455 12.9597 30.6279 13.118 30.9097 13.4L32.4579 14.9482C33.0449 15.5353 33.0449 16.4871 32.4579 17.0742Z" fill="white"/>
</svg>
