<svg width="39" height="55" viewBox="0 0 39 55" fill="none" xmlns="http://www.w3.org/2000/svg">
<path d="M28.1781 38.0193L30.6589 33.9938L35.1357 32.467L35.6317 27.765L38.9999 24.4491L37.3985 19.9983L38.9999 15.5474L35.6318 12.2315L35.1358 7.52955L30.659 6.00272L28.1782 1.97713L23.4859 2.54367L19.5 -0.00012207L15.514 2.54389L10.8218 1.97734L8.34109 6.00283L3.86422 7.52966L3.36824 12.2316L0 15.5475L1.60142 19.9984L0 24.4493L3.36814 27.7651L3.86412 32.4671L8.34098 33.9939L10.8217 38.0194L15.514 37.453L19.5 39.9969L23.4859 37.453L28.1781 38.0193ZM5.78616 19.9984C5.78616 12.4366 11.9382 6.28456 19.5 6.28456C27.0617 6.28456 33.2138 12.4366 33.2138 19.9984C33.2138 27.5601 27.0617 33.7122 19.5 33.7122C11.9382 33.7122 5.78616 27.5601 5.78616 19.9984Z" fill="white"/>
<path d="M19.5 9.46527C13.692 9.46527 8.96689 14.1904 8.96689 19.9984C8.96689 25.8064 13.692 30.5315 19.5 30.5315C25.308 30.5315 30.0331 25.8064 30.0331 19.9984C30.0331 14.1904 25.308 9.46527 19.5 9.46527Z" fill="white"/>
<path d="M14.7636 40.7473L9.18182 41.4212L6.23274 36.6355L5.23018 36.2936L0.905792 49.8101L8.69092 49.3819L14.7818 54.2495L18.3661 43.0465L14.7636 40.7473Z" fill="white"/>
<path d="M32.7672 36.6356L29.818 41.4212L24.2363 40.7473L20.6338 43.0465L24.2181 54.2495L30.309 49.3819L38.0941 49.8101L33.7697 36.2936L32.7672 36.6356Z" fill="white"/>
</svg>
