<svg width="33" height="42" viewBox="0 0 33 42" fill="none" xmlns="http://www.w3.org/2000/svg">
<path d="M32.9708 18.5545C32.7121 16.2793 30.5868 14.6667 28.297 14.6667H16.8624C17.8342 12.9266 18.3558 8.00511 18.3326 5.99466C18.2943 2.66681 15.5384 0 12.2104 0H11.0002C10.1896 0 9.53349 0.655968 9.53349 1.46671C9.53349 4.85828 8.21287 10.98 5.72221 13.4708C4.04579 15.1472 2.61266 15.7546 0.733459 16.6938V38.701C3.61056 39.66 7.26357 41.0667 12.8315 41.0667H22.4257C25.5869 41.0667 28.049 38.1388 26.824 35.0454C28.6903 34.537 30.0667 32.8253 30.0667 30.8C30.0667 30.2285 29.9564 29.6814 29.7573 29.1786C32.9024 28.3218 34.0601 24.4384 31.8772 22C32.6791 21.1041 33.1214 19.8786 32.9708 18.5545Z" fill="white"/>
</svg>
