<svg width="18" height="36" viewBox="0 0 18 36" fill="none" xmlns="http://www.w3.org/2000/svg">
<path d="M4.40858 35.6014C7.12764 34.4165 9.43925 32.9115 11.3476 31.0862C13.68 28.8536 15.2723 26.3424 16.1288 23.5527C16.9853 20.763 17.4135 16.9172 17.4135 12.0154V2.07879C17.4135 0.931298 16.4822 0 15.3347 0H2.69561C1.54812 0 0.616823 0.931298 0.616823 2.07879V14.7178C0.616823 15.8654 1.54812 16.7966 2.69561 16.7966H8.74489C8.6659 20.1061 7.89675 22.7544 6.44159 24.7459C5.2941 26.3175 3.55623 27.6188 1.23214 28.6457C0.163647 29.1155 -0.297845 30.3794 0.201065 31.4355L1.69364 34.587C2.17596 35.6014 3.3775 36.0504 4.40858 35.6014Z" fill="#E8E8E7"/>
</svg>
